<svg width="165" height="35" viewBox="0 0 165 35" fill="none" xmlns="http://www.w3.org/2000/svg">
<g filter="url(#filter0_b_1_13)">
<path d="M1.28 18.984V16.616L11.072 12.392V14.952L4.32 17.8L11.072 20.648V23.208L1.28 18.984ZM14.1245 6.6H19.1485L21.3885 22.632H21.4525L23.6925 6.6H28.7165V29H25.3885V12.04H25.3245L22.7645 29H19.8205L17.2605 12.04H17.1965V29H14.1245V6.6ZM34.0633 6.6H38.8313L42.4793 29H38.9593L38.3193 24.552V24.616H34.3193L33.6793 29H30.4153L34.0633 6.6ZM37.9033 21.576L36.3353 10.504H36.2713L34.7352 21.576H37.9033ZM45.4703 9.8H41.7903V6.6H52.6703V9.8H48.9903V29H45.4703V9.8ZM54.3745 6.6H63.9745V9.8H57.8945V15.72H62.7265V18.92H57.8945V25.8H63.9745V29H54.3745V6.6ZM71.1195 29.32C69.4128 29.32 68.1115 28.84 67.2155 27.88C66.3195 26.8987 65.8715 25.5013 65.8715 23.688V6.6H69.3915V23.944C69.3915 24.712 69.5408 25.2667 69.8395 25.608C70.1595 25.9493 70.6075 26.12 71.1835 26.12C71.7595 26.12 72.1968 25.9493 72.4955 25.608C72.8155 25.2667 72.9755 24.712 72.9755 23.944V6.6H76.3675V23.688C76.3675 25.5013 75.9195 26.8987 75.0235 27.88C74.1275 28.84 72.8262 29.32 71.1195 29.32ZM83.4505 29.32C81.7438 29.32 80.4532 28.84 79.5785 27.88C78.7038 26.8987 78.2665 25.5013 78.2665 23.688V22.408H81.5945V23.944C81.5945 25.3947 82.2025 26.12 83.4185 26.12C84.0158 26.12 84.4638 25.9493 84.7625 25.608C85.0825 25.2453 85.2425 24.6693 85.2425 23.88C85.2425 22.9413 85.0292 22.12 84.6025 21.416C84.1758 20.6907 83.3865 19.8267 82.2345 18.824C80.7838 17.544 79.7705 16.392 79.1945 15.368C78.6185 14.3227 78.3305 13.1493 78.3305 11.848C78.3305 10.0773 78.7785 8.712 79.6745 7.752C80.5705 6.77067 81.8718 6.28 83.5785 6.28C85.2638 6.28 86.5332 6.77067 87.3865 7.752C88.2612 8.712 88.6985 10.0987 88.6985 11.912V12.84H85.3705V11.688C85.3705 10.92 85.2212 10.3653 84.9225 10.024C84.6238 9.66133 84.1865 9.48 83.6105 9.48C82.4372 9.48 81.8505 10.1947 81.8505 11.624C81.8505 12.4347 82.0638 13.192 82.4905 13.896C82.9385 14.6 83.7385 15.4533 84.8905 16.456C86.3625 17.736 87.3758 18.8987 87.9305 19.944C88.4852 20.9893 88.7625 22.216 88.7625 23.624C88.7625 25.4587 88.3038 26.8667 87.3865 27.848C86.4905 28.8293 85.1785 29.32 83.4505 29.32ZM146.589 6.6H149.629L140.797 29H137.757L146.589 6.6ZM151.634 20.648L158.386 17.8L151.634 14.952V12.392L161.426 16.616V18.984L151.634 23.208V20.648Z" fill="white"/>
<path d="M90.7808 25.608H94.1727V29H90.7808V25.608Z" fill="#7C91D6" fill-opacity="0.57"/>
<path d="M96.812 6.6H102.188C103.937 6.6 105.249 7.06933 106.124 8.008C106.999 8.94667 107.436 10.3227 107.436 12.136V23.464C107.436 25.2773 106.999 26.6533 106.124 27.592C105.249 28.5307 103.937 29 102.188 29H96.812V6.6ZM102.124 25.8C102.7 25.8 103.137 25.6293 103.436 25.288C103.756 24.9467 103.916 24.392 103.916 23.624V11.976C103.916 11.208 103.756 10.6533 103.436 10.312C103.137 9.97067 102.7 9.8 102.124 9.8H100.332V25.8H102.124ZM109.812 6.6H119.412V9.8H113.332V15.72H118.164V18.92H113.332V25.8H119.412V29H109.812V6.6ZM120.509 6.6H124.061L126.365 23.976H126.429L128.733 6.6H131.965L128.573 29H123.901L120.509 6.6Z" fill="#000BD9"/>
</g>
<defs>
<filter id="filter0_b_1_13" x="-98.72" y="-93.72" width="360.146" height="223.04" filterUnits="userSpaceOnUse" color-interpolation-filters="sRGB">
<feFlood flood-opacity="0" result="BackgroundImageFix"/>
<feGaussianBlur in="BackgroundImageFix" stdDeviation="50"/>
<feComposite in2="SourceAlpha" operator="in" result="effect1_backgroundBlur_1_13"/>
<feBlend mode="normal" in="SourceGraphic" in2="effect1_backgroundBlur_1_13" result="shape"/>
</filter>
</defs>
</svg>
