<svg width="161" height="24" viewBox="0 0 161 24" fill="none" xmlns="http://www.w3.org/2000/svg">
<g filter="url(#filter0_b_1_4)">
<path d="M0.28 12.984V10.616L10.072 6.392V8.952L3.32 11.8L10.072 14.648V17.208L0.28 12.984ZM13.1245 0.599998H18.1485L20.3885 16.632H20.4525L22.6925 0.599998H27.7165V23H24.3885V6.04H24.3245L21.7645 23H18.8205L16.2605 6.04H16.1965V23H13.1245V0.599998ZM33.0633 0.599998H37.8313L41.4793 23H37.9593L37.3193 18.552V18.616H33.3193L32.6793 23H29.4153L33.0633 0.599998ZM36.9033 15.576L35.3353 4.504H35.2713L33.7352 15.576H36.9033ZM44.4703 3.8H40.7903V0.599998H51.6703V3.8H47.9903V23H44.4703V3.8ZM53.3745 0.599998H62.9745V3.8H56.8945V9.72H61.7265V12.92H56.8945V19.8H62.9745V23H53.3745V0.599998ZM70.1195 23.32C68.4128 23.32 67.1115 22.84 66.2155 21.88C65.3195 20.8987 64.8715 19.5013 64.8715 17.688V0.599998H68.3915V17.944C68.3915 18.712 68.5408 19.2667 68.8395 19.608C69.1595 19.9493 69.6075 20.12 70.1835 20.12C70.7595 20.12 71.1968 19.9493 71.4955 19.608C71.8155 19.2667 71.9755 18.712 71.9755 17.944V0.599998H75.3675V17.688C75.3675 19.5013 74.9195 20.8987 74.0235 21.88C73.1275 22.84 71.8262 23.32 70.1195 23.32ZM82.4505 23.32C80.7438 23.32 79.4532 22.84 78.5785 21.88C77.7038 20.8987 77.2665 19.5013 77.2665 17.688V16.408H80.5945V17.944C80.5945 19.3947 81.2025 20.12 82.4185 20.12C83.0158 20.12 83.4638 19.9493 83.7625 19.608C84.0825 19.2453 84.2425 18.6693 84.2425 17.88C84.2425 16.9413 84.0292 16.12 83.6025 15.416C83.1758 14.6907 82.3865 13.8267 81.2345 12.824C79.7838 11.544 78.7705 10.392 78.1945 9.368C77.6185 8.32267 77.3305 7.14933 77.3305 5.848C77.3305 4.07733 77.7785 2.712 78.6745 1.752C79.5705 0.770665 80.8718 0.279999 82.5785 0.279999C84.2638 0.279999 85.5332 0.770665 86.3865 1.752C87.2612 2.712 87.6985 4.09867 87.6985 5.912V6.84H84.3705V5.688C84.3705 4.92 84.2212 4.36533 83.9225 4.024C83.6238 3.66133 83.1865 3.48 82.6105 3.48C81.4372 3.48 80.8505 4.19467 80.8505 5.624C80.8505 6.43467 81.0638 7.192 81.4905 7.896C81.9385 8.6 82.7385 9.45333 83.8905 10.456C85.3625 11.736 86.3758 12.8987 86.9305 13.944C87.4852 14.9893 87.7625 16.216 87.7625 17.624C87.7625 19.4587 87.3038 20.8667 86.3865 21.848C85.4905 22.8293 84.1785 23.32 82.4505 23.32ZM89.7808 19.608H93.1727V23H89.7808V19.608ZM145.589 0.599998H148.629L139.797 23H136.757L145.589 0.599998ZM150.634 14.648L157.386 11.8L150.634 8.952V6.392L160.426 10.616V12.984L150.634 17.208V14.648Z" fill="black"/>
<path d="M95.812 0.599998H101.188C102.937 0.599998 104.249 1.06933 105.124 2.008C105.999 2.94667 106.436 4.32267 106.436 6.136V17.464C106.436 19.2773 105.999 20.6533 105.124 21.592C104.249 22.5307 102.937 23 101.188 23H95.812V0.599998ZM101.124 19.8C101.7 19.8 102.137 19.6293 102.436 19.288C102.756 18.9467 102.916 18.392 102.916 17.624V5.976C102.916 5.208 102.756 4.65333 102.436 4.312C102.137 3.97067 101.7 3.8 101.124 3.8H99.332V19.8H101.124ZM108.812 0.599998H118.412V3.8H112.332V9.72H117.164V12.92H112.332V19.8H118.412V23H108.812V0.599998ZM119.509 0.599998H123.061L125.365 17.976H125.429L127.733 0.599998H130.965L127.573 23H122.901L119.509 0.599998Z" fill="#000BD9"/>
</g>
<defs>
<filter id="filter0_b_1_4" x="-99.72" y="-99.72" width="360.146" height="223.04" filterUnits="userSpaceOnUse" color-interpolation-filters="sRGB">
<feFlood flood-opacity="0" result="BackgroundImageFix"/>
<feGaussianBlur in="BackgroundImageFix" stdDeviation="50"/>
<feComposite in2="SourceAlpha" operator="in" result="effect1_backgroundBlur_1_4"/>
<feBlend mode="normal" in="SourceGraphic" in2="effect1_backgroundBlur_1_4" result="shape"/>
</filter>
</defs>
</svg>
